# xmcd CD database file
#
# Track frame offsets:
#	150
#	22080
#	48827
#	73737
#	98377
#	124682
#	154712
#	179812
#	204755
#	226082
#	244965
#	279157
#
# Disc length: 4115 seconds
#
# Revision: 8
# Processed by: cddbd v1.5.2PL0 Copyright (c) Steve Scherf et al.
# Submitted via: CDex 1.70beta2
#
DISCID=9810110c
DTITLE=횁짚쩌철쨀창 - [Beautiful Things In Life]
DYEAR=2001
DGENRE=New Age
TTITLE0=아리랑 (Arirang)
TTITLE1=공허함 (Emptiness)
TTITLE2=세상에서 아름다운 것들 (Beautiful Things In Life)
TTITLE3=지주유희 (A Play At Jinjoo)
TTITLE4=포천이야기 (A Pochun Story)
TTITLE5=그리움 (Nostalgia)
TTITLE6=한오백년 (The Long Five Hundred Years)
TTITLE7=어린왕자 (The Little Prince)
TTITLE8=여행길 (Trip Road)
TTITLE9=Walking In The Rain
TTITLE10=진달래 (Azalea)
TTITLE11=기도 (Prayer)
EXTD=YEAR: 2001
EXTT0=
EXTT1=
EXTT2=
EXTT3=
EXTT4=
EXTT5=
EXTT6=
EXTT7=
EXTT8=
EXTT9=
EXTT10=
EXTT11=
PLAYORDER=
